<!-- Source: https://github.com/danielbruce/entypo -->
<!-- Licence: https://creativecommons.org/licenses/by-sa/3.0/ -->
<svg xmlns="http://www.w3.org/2000/svg" viewBox="0 0 700 1000"><path d="M212 542c0 0 0-90 0-90 0 0 280 0 280 0 0 0 0 90 0 90 0 0-280 0-280 0 0 0 0 0 0 0m388-492c28 0 51.7 9.7 71 29 19.3 19.3 29 43 29 71 0 0 0 700 0 700 0 26.7-9.7 50-29 70 -19.3 20-43 30-71 30 0 0-500 0-500 0 -26.7 0-50-10-70-30 -20-20-30-43.3-30-70 0 0 0-700 0-700 0-28 10-51.7 30-71 20-19.3 43.3-29 70-29 0 0 500 0 500 0 0 0 0 0 0 0m0 800c0 0 0-700 0-700 0 0-500 0-500 0 0 0 0 700 0 700 0 0 500 0 500 0 0 0 0 0 0 0m-110-592c0 0 0 88 0 88 0 0-280 0-280 0 0 0 0-88 0-88 0 0 280 0 280 0 0 0 0 0 0 0m0 392c0 0 0 88 0 88 0 0-280 0-280 0 0 0 0-88 0-88 0 0 280 0 280 0 0 0 0 0 0 0"/></svg>
